<svg width="43" height="43" viewBox="0 0 43 43" fill="none" xmlns="http://www.w3.org/2000/svg">
    <circle cx="21.597" cy="21.5001" r="20.9029" fill="white" stroke="#3d9386" />
    <path
        d="M22.2289 14.7502C22.1678 14.6918 22.0866 14.6592 22.0021 14.6592C21.9176 14.6592 21.8363 14.6918 21.7753 14.7502L14.2246 21.9633C14.1925 21.994 14.167 22.0308 14.1496 22.0717C14.1322 22.1125 14.1233 22.1564 14.1233 22.2008L14.1221 28.9705C14.1221 29.3186 14.2603 29.6524 14.5065 29.8986C14.7526 30.1447 15.0864 30.283 15.4345 30.283H19.3759C19.55 30.283 19.7169 30.2138 19.84 30.0908C19.963 29.9677 20.0322 29.8008 20.0322 29.6267V24.0489C20.0322 23.9618 20.0667 23.8784 20.1283 23.8168C20.1898 23.7553 20.2733 23.7207 20.3603 23.7207H23.6414C23.7284 23.7207 23.8119 23.7553 23.8734 23.8168C23.9349 23.8784 23.9695 23.9618 23.9695 24.0489V29.6267C23.9695 29.8008 24.0386 29.9677 24.1617 30.0908C24.2848 30.2138 24.4517 30.283 24.6257 30.283H28.5655C28.9136 30.283 29.2474 30.1447 29.4935 29.8986C29.7397 29.6524 29.878 29.3186 29.878 28.9705V22.2008C29.878 22.1564 29.8691 22.1125 29.8516 22.0717C29.8342 22.0308 29.8087 21.994 29.7766 21.9633L22.2289 14.7502Z"
        fill="#3d9386" />
    <path
        d="M31.6354 20.6103L28.5675 17.6753V13.2216C28.5675 13.0476 28.4984 12.8807 28.3753 12.7576C28.2523 12.6345 28.0854 12.5654 27.9113 12.5654H25.9427C25.7686 12.5654 25.6017 12.6345 25.4786 12.7576C25.3556 12.8807 25.2864 13.0476 25.2864 13.2216V14.5341L22.9109 12.2627C22.6886 12.038 22.358 11.9092 22.0008 11.9092C21.6448 11.9092 21.3151 12.038 21.0928 12.2631L12.3691 20.6094C12.114 20.8555 12.082 21.2603 12.3142 21.5269C12.3725 21.5942 12.4438 21.6489 12.5239 21.6878C12.6041 21.7266 12.6912 21.7487 12.7802 21.7528C12.8691 21.7569 12.9579 21.7428 13.0413 21.7114C13.1246 21.6801 13.2007 21.6321 13.2649 21.5704L21.7752 13.4382C21.8363 13.3798 21.9175 13.3472 22.002 13.3472C22.0865 13.3472 22.1678 13.3798 22.2288 13.4382L30.74 21.5704C30.8654 21.6906 31.0334 21.7563 31.207 21.7529C31.3807 21.7495 31.5459 21.6774 31.6665 21.5524C31.9184 21.2915 31.8975 20.8609 31.6354 20.6103Z"
        fill="#3d9386" />
</svg>