<svg width="44" height="45" viewBox="0 0 44 45" fill="none" xmlns="http://www.w3.org/2000/svg">
    <circle cx="22" cy="22.5" r="21.5" fill="white" stroke="#3d9386" />
    <g clip-path="url(#clip0_1_351)">
        <path
            d="M31.4445 14.833H13.5556C13.2167 14.833 12.8917 14.9676 12.6521 15.2073C12.4125 15.4469 12.2778 15.7719 12.2778 16.1108V28.8886C12.2778 29.2275 12.4125 29.5525 12.6521 29.7921C12.8917 30.0317 13.2167 30.1663 13.5556 30.1663H31.4445C31.7834 30.1663 32.1084 30.0317 32.348 29.7921C32.5877 29.5525 32.7223 29.2275 32.7223 28.8886V16.1108C32.7223 15.7719 32.5877 15.4469 32.348 15.2073C32.1084 14.9676 31.7834 14.833 31.4445 14.833ZM30.4606 28.8886H14.6162L19.0884 24.263L18.1684 23.375L13.5556 28.1475V17.0819L21.497 24.985C21.7364 25.2229 22.0603 25.3565 22.3978 25.3565C22.7354 25.3565 23.0593 25.2229 23.2987 24.985L31.4445 16.8838V28.0644L26.7423 23.3622L25.8414 24.263L30.4606 28.8886ZM14.3926 16.1108H30.4095L22.3978 24.0777L14.3926 16.1108Z"
            fill="#3d9386" />
    </g>
    <defs>
        <clipPath id="clip0_1_351">
            <rect width="23" height="18" fill="white" transform="translate(11 14)" />
        </clipPath>
    </defs>
</svg>