<svg width="44" height="45" viewBox="0 0 44 45" fill="none" xmlns="http://www.w3.org/2000/svg">
    <circle cx="22" cy="22.5" r="21.5" fill="white" stroke="#3d9386" />
    <path
        d="M17.7434 12.2437L18.9551 11.8567C20.0891 11.4944 21.3018 12.0805 21.7878 13.2258L22.7553 15.5073C23.1772 16.5007 22.9432 17.6695 22.1771 18.3963L20.0474 20.419C20.1791 21.6295 20.5852 22.8209 21.2669 23.9932C21.9147 25.1274 22.7835 26.1201 23.8218 26.9125L26.3823 26.0575C27.3521 25.7347 28.4084 26.107 29.0036 26.9812L30.3896 29.0174C31.0826 30.0344 30.9577 31.4362 30.0993 32.2979L29.1791 33.2215C28.2633 34.1407 26.9561 34.4748 25.7456 34.0968C22.8892 33.2058 20.2634 30.5609 17.8672 26.1622C15.4676 21.7567 14.6216 18.0172 15.3269 14.9482C15.6239 13.6567 16.5442 12.6273 17.7457 12.2437H17.7434Z"
        fill="#3d9386" />
</svg>